<svg xmlns="http://www.w3.org/2000/svg" viewBox="0 0 24 24" role="img" aria-label="Steam">
  <path fill="#171a21" d="M11.979 0C5.678 0 .511 4.86.022 11.037l4.432 1.83c.376-.257.818-.42 1.293-.42.045 0 .09.003.134.005l1.972-2.86.006-.02c0-2.372 1.93-4.304 4.304-4.304 2.372 0 4.303 1.932 4.303 4.304 0 2.372-1.93 4.304-4.303 4.304-.017 0-.034 0-.05-.001l-2.815 2.015c0 .026.001.052.001.078 0 1.477-1.2 2.677-2.677 2.677-1.316 0-2.413-.956-2.633-2.214L.45 14.59C1.7 19.863 6.422 24 11.979 24c6.627 0 11.999-5.373 11.999-12S18.606 0 11.979 0zM7.54 18.21l-1.38-.57c.27.564.826.96 1.49.96.912 0 1.652-.74 1.652-1.652 0-.163-.024-.32-.068-.47l-1.487.62c-.018.007-.036.015-.055.021-.006.002-.012.007-.018.01a.866.866 0 0 1-.134.02zM16.132 10.59c0-1.616-1.315-2.93-2.93-2.93-1.617 0-2.932 1.314-2.932 2.93 0 1.616 1.315 2.931 2.932 2.931 1.615 0 2.93-1.315 2.93-2.931zm-5.17 0c0-1.237 1.006-2.24 2.24-2.24 1.236 0 2.24 1.003 2.24 2.24 0 1.237-1.004 2.24-2.24 2.24-1.234 0-2.24-1.003-2.24-2.24z"/>
</svg>
